<?xml version="1.0" encoding="utf-8"?>
<!-- Generator: Adobe Illustrator 24.0.0, SVG Export Plug-In . SVG Version: 6.00 Build 0)  -->
<svg version="1.1" id="Layer_1" xmlns="http://www.w3.org/2000/svg" xmlns:xlink="http://www.w3.org/1999/xlink" x="0px" y="0px"
	 viewBox="0 0 864 864" style="enable-background:new 0 0 864 864;" xml:space="preserve" >
<style type="text/css">
	.st0{fill:#5E9942;}
	.st1{fill:#FFFFFF;}
</style>
<rect x="15.6" y="234.7" class="st0" width="832.8" height="394.6"/>
<rect x="120.9" y="591.8" class="st1" width="2.4" height="12.2"/>
<rect x="127.1" y="591.8" class="st1" width="2.4" height="12.2"/>
<rect x="133.2" y="591.8" class="st1" width="2.4" height="12.2"/>
<rect x="139.4" y="591.8" class="st1" width="2.4" height="12.2"/>
<rect x="152.2" y="591.8" class="st1" width="2.4" height="12.2"/>
<rect x="158.3" y="591.8" class="st1" width="2.4" height="12.2"/>
<rect x="164.5" y="591.8" class="st1" width="2.4" height="12.2"/>
<rect x="170.6" y="591.8" class="st1" width="2.4" height="12.2"/>
<rect x="183.4" y="591.8" class="st1" width="2.4" height="12.2"/>
<rect x="189.6" y="591.8" class="st1" width="2.4" height="12.2"/>
<rect x="195.7" y="591.8" class="st1" width="2.4" height="12.2"/>
<rect x="201.9" y="591.8" class="st1" width="2.4" height="12.2"/>
<rect x="214.7" y="591.8" class="st1" width="2.4" height="12.2"/>
<rect x="220.8" y="591.8" class="st1" width="2.4" height="12.2"/>
<rect x="227" y="591.8" class="st1" width="2.4" height="12.2"/>
<rect x="233.1" y="591.8" class="st1" width="2.4" height="12.2"/>
<rect x="245.9" y="591.8" class="st1" width="2.4" height="12.2"/>
<rect x="252.1" y="591.8" class="st1" width="2.4" height="12.2"/>
<rect x="258.2" y="591.8" class="st1" width="2.4" height="12.2"/>
<rect x="264.4" y="591.8" class="st1" width="2.4" height="12.2"/>
<rect x="277.2" y="591.8" class="st1" width="2.4" height="12.2"/>
<rect x="283.3" y="591.8" class="st1" width="2.4" height="12.2"/>
<rect x="289.5" y="591.8" class="st1" width="2.4" height="12.2"/>
<rect x="295.6" y="591.8" class="st1" width="2.4" height="12.2"/>
<rect x="308.4" y="591.8" class="st1" width="2.4" height="12.2"/>
<rect x="314.6" y="591.8" class="st1" width="2.4" height="12.2"/>
<rect x="320.7" y="591.8" class="st1" width="2.4" height="12.2"/>
<rect x="326.9" y="591.8" class="st1" width="2.4" height="12.2"/>
<rect x="339.7" y="591.8" class="st1" width="2.4" height="12.2"/>
<rect x="345.8" y="591.8" class="st1" width="2.4" height="12.2"/>
<rect x="352" y="591.8" class="st1" width="2.4" height="12.2"/>
<rect x="358.1" y="591.8" class="st1" width="2.4" height="12.2"/>
<rect x="370.9" y="591.8" class="st1" width="2.4" height="12.2"/>
<rect x="377.1" y="591.8" class="st1" width="2.4" height="12.2"/>
<rect x="383.2" y="591.8" class="st1" width="2.4" height="12.2"/>
<rect x="389.4" y="591.8" class="st1" width="2.4" height="12.2"/>
<rect x="402.2" y="591.8" class="st1" width="2.4" height="12.2"/>
<rect x="408.3" y="591.8" class="st1" width="2.4" height="12.2"/>
<rect x="414.5" y="591.8" class="st1" width="2.4" height="12.2"/>
<rect x="420.6" y="591.8" class="st1" width="2.4" height="12.2"/>
<rect x="433.4" y="591.8" class="st1" width="2.4" height="12.2"/>
<rect x="439.6" y="591.8" class="st1" width="2.4" height="12.2"/>
<rect x="445.7" y="591.8" class="st1" width="2.4" height="12.2"/>
<rect x="451.9" y="591.8" class="st1" width="2.4" height="12.2"/>
<rect x="464.7" y="591.8" class="st1" width="2.4" height="12.2"/>
<rect x="470.8" y="591.8" class="st1" width="2.4" height="12.2"/>
<rect x="477" y="591.8" class="st1" width="2.4" height="12.2"/>
<rect x="483.1" y="591.8" class="st1" width="2.4" height="12.2"/>
<rect x="495.9" y="591.8" class="st1" width="2.4" height="12.2"/>
<rect x="502.1" y="591.8" class="st1" width="2.4" height="12.2"/>
<rect x="508.2" y="591.8" class="st1" width="2.4" height="12.2"/>
<rect x="514.4" y="591.8" class="st1" width="2.4" height="12.2"/>
<rect x="527.1" y="591.8" class="st1" width="2.4" height="12.2"/>
<rect x="533.3" y="591.8" class="st1" width="2.4" height="12.2"/>
<rect x="539.5" y="591.8" class="st1" width="2.4" height="12.2"/>
<rect x="545.6" y="591.8" class="st1" width="2.4" height="12.2"/>
<rect x="558.4" y="591.8" class="st1" width="2.4" height="12.2"/>
<rect x="564.5" y="591.8" class="st1" width="2.4" height="12.2"/>
<rect x="570.7" y="591.8" class="st1" width="2.4" height="12.2"/>
<rect x="576.9" y="591.8" class="st1" width="2.4" height="12.2"/>
<rect x="589.6" y="591.8" class="st1" width="2.4" height="12.2"/>
<rect x="595.8" y="591.8" class="st1" width="2.4" height="12.2"/>
<rect x="601.9" y="591.8" class="st1" width="2.4" height="12.2"/>
<rect x="608.1" y="591.8" class="st1" width="2.4" height="12.2"/>
<rect x="620.9" y="591.8" class="st1" width="2.4" height="12.2"/>
<rect x="627" y="591.8" class="st1" width="2.4" height="12.2"/>
<rect x="633.2" y="591.8" class="st1" width="2.4" height="12.2"/>
<rect x="639.3" y="591.8" class="st1" width="2.4" height="12.2"/>
<rect x="652.1" y="591.8" class="st1" width="2.4" height="12.2"/>
<rect x="658.3" y="591.8" class="st1" width="2.4" height="12.2"/>
<rect x="664.4" y="591.8" class="st1" width="2.4" height="12.2"/>
<rect x="670.6" y="591.8" class="st1" width="2.4" height="12.2"/>
<rect x="683.4" y="591.8" class="st1" width="2.4" height="12.2"/>
<rect x="689.5" y="591.8" class="st1" width="2.4" height="12.2"/>
<rect x="695.7" y="591.8" class="st1" width="2.4" height="12.2"/>
<rect x="701.8" y="591.8" class="st1" width="2.4" height="12.2"/>
<rect x="714.6" y="591.8" class="st1" width="2.4" height="12.2"/>
<rect x="720.8" y="591.8" class="st1" width="2.4" height="12.2"/>
<rect x="726.9" y="591.8" class="st1" width="2.4" height="12.2"/>
<rect x="733.1" y="591.8" class="st1" width="2.4" height="12.2"/>
<rect x="120.9" y="458.5" class="st1" width="2.4" height="12.2"/>
<rect x="127.1" y="458.5" class="st1" width="2.4" height="12.2"/>
<rect x="133.2" y="458.5" class="st1" width="2.4" height="12.2"/>
<rect x="139.4" y="458.5" class="st1" width="2.4" height="12.2"/>
<rect x="152.2" y="458.5" class="st1" width="2.4" height="12.2"/>
<rect x="158.3" y="458.5" class="st1" width="2.4" height="12.2"/>
<rect x="164.5" y="458.5" class="st1" width="2.4" height="12.2"/>
<rect x="170.6" y="458.5" class="st1" width="2.4" height="12.2"/>
<rect x="183.4" y="458.5" class="st1" width="2.4" height="12.2"/>
<rect x="189.6" y="458.5" class="st1" width="2.4" height="12.2"/>
<rect x="195.7" y="458.5" class="st1" width="2.4" height="12.2"/>
<rect x="201.9" y="458.5" class="st1" width="2.4" height="12.2"/>
<rect x="214.7" y="458.5" class="st1" width="2.4" height="12.2"/>
<rect x="220.8" y="458.5" class="st1" width="2.4" height="12.2"/>
<rect x="227" y="458.5" class="st1" width="2.4" height="12.2"/>
<rect x="233.1" y="458.5" class="st1" width="2.4" height="12.2"/>
<rect x="245.9" y="458.5" class="st1" width="2.4" height="12.2"/>
<rect x="252.1" y="458.5" class="st1" width="2.4" height="12.2"/>
<rect x="258.2" y="458.5" class="st1" width="2.4" height="12.2"/>
<rect x="264.4" y="458.5" class="st1" width="2.4" height="12.2"/>
<rect x="277.2" y="458.5" class="st1" width="2.4" height="12.2"/>
<rect x="283.3" y="458.5" class="st1" width="2.4" height="12.2"/>
<rect x="289.5" y="458.5" class="st1" width="2.4" height="12.2"/>
<rect x="295.6" y="458.5" class="st1" width="2.4" height="12.2"/>
<rect x="308.4" y="458.5" class="st1" width="2.4" height="12.2"/>
<rect x="314.6" y="458.5" class="st1" width="2.4" height="12.2"/>
<rect x="320.7" y="458.5" class="st1" width="2.4" height="12.2"/>
<rect x="326.9" y="458.5" class="st1" width="2.4" height="12.2"/>
<rect x="339.7" y="458.5" class="st1" width="2.4" height="12.2"/>
<rect x="345.8" y="458.5" class="st1" width="2.4" height="12.2"/>
<rect x="352" y="458.5" class="st1" width="2.4" height="12.2"/>
<rect x="358.1" y="458.5" class="st1" width="2.4" height="12.2"/>
<rect x="370.9" y="458.5" class="st1" width="2.4" height="12.2"/>
<rect x="377.1" y="458.5" class="st1" width="2.4" height="12.2"/>
<rect x="383.2" y="458.5" class="st1" width="2.4" height="12.2"/>
<rect x="389.4" y="458.5" class="st1" width="2.4" height="12.2"/>
<rect x="402.2" y="458.5" class="st1" width="2.4" height="12.2"/>
<rect x="408.3" y="458.5" class="st1" width="2.4" height="12.2"/>
<rect x="414.5" y="458.5" class="st1" width="2.4" height="12.2"/>
<rect x="420.6" y="458.5" class="st1" width="2.4" height="12.2"/>
<rect x="433.4" y="458.5" class="st1" width="2.4" height="12.2"/>
<rect x="439.6" y="458.5" class="st1" width="2.4" height="12.2"/>
<rect x="445.7" y="458.5" class="st1" width="2.4" height="12.2"/>
<rect x="451.9" y="458.5" class="st1" width="2.4" height="12.2"/>
<rect x="464.7" y="458.5" class="st1" width="2.4" height="12.2"/>
<rect x="470.8" y="458.5" class="st1" width="2.4" height="12.2"/>
<rect x="477" y="458.5" class="st1" width="2.4" height="12.2"/>
<rect x="483.1" y="458.5" class="st1" width="2.4" height="12.2"/>
<rect x="495.9" y="458.5" class="st1" width="2.4" height="12.2"/>
<rect x="502.1" y="458.5" class="st1" width="2.4" height="12.2"/>
<rect x="508.2" y="458.5" class="st1" width="2.4" height="12.2"/>
<rect x="514.4" y="458.5" class="st1" width="2.4" height="12.2"/>
<rect x="527.1" y="458.5" class="st1" width="2.4" height="12.2"/>
<rect x="533.3" y="458.5" class="st1" width="2.4" height="12.2"/>
<rect x="539.5" y="458.5" class="st1" width="2.4" height="12.2"/>
<rect x="545.6" y="458.5" class="st1" width="2.4" height="12.2"/>
<rect x="558.4" y="458.5" class="st1" width="2.4" height="12.2"/>
<rect x="564.5" y="458.5" class="st1" width="2.4" height="12.2"/>
<rect x="570.7" y="458.5" class="st1" width="2.4" height="12.2"/>
<rect x="576.9" y="458.5" class="st1" width="2.4" height="12.2"/>
<rect x="589.6" y="458.5" class="st1" width="2.4" height="12.2"/>
<rect x="595.8" y="458.5" class="st1" width="2.4" height="12.2"/>
<rect x="601.9" y="458.5" class="st1" width="2.4" height="12.2"/>
<rect x="608.1" y="458.5" class="st1" width="2.4" height="12.2"/>
<rect x="620.9" y="458.5" class="st1" width="2.4" height="12.2"/>
<rect x="627" y="458.5" class="st1" width="2.4" height="12.2"/>
<rect x="633.2" y="458.5" class="st1" width="2.4" height="12.2"/>
<rect x="639.3" y="458.5" class="st1" width="2.4" height="12.2"/>
<rect x="652.1" y="458.5" class="st1" width="2.4" height="12.2"/>
<rect x="658.3" y="458.5" class="st1" width="2.4" height="12.2"/>
<rect x="664.4" y="458.5" class="st1" width="2.4" height="12.2"/>
<rect x="670.6" y="458.5" class="st1" width="2.4" height="12.2"/>
<rect x="683.4" y="458.5" class="st1" width="2.4" height="12.2"/>
<rect x="689.5" y="458.5" class="st1" width="2.4" height="12.2"/>
<rect x="695.7" y="458.5" class="st1" width="2.4" height="12.2"/>
<rect x="701.8" y="458.5" class="st1" width="2.4" height="12.2"/>
<rect x="714.6" y="458.5" class="st1" width="2.4" height="12.2"/>
<rect x="720.8" y="458.5" class="st1" width="2.4" height="12.2"/>
<rect x="726.9" y="458.5" class="st1" width="2.4" height="12.2"/>
<rect x="733.1" y="458.5" class="st1" width="2.4" height="12.2"/>
<rect x="120.9" y="394.9" class="st1" width="2.4" height="12.2"/>
<rect x="127.1" y="394.9" class="st1" width="2.4" height="12.2"/>
<rect x="133.2" y="394.9" class="st1" width="2.4" height="12.2"/>
<rect x="139.4" y="394.9" class="st1" width="2.4" height="12.2"/>
<rect x="152.2" y="394.9" class="st1" width="2.4" height="12.2"/>
<rect x="158.3" y="394.9" class="st1" width="2.4" height="12.2"/>
<rect x="164.5" y="394.9" class="st1" width="2.4" height="12.2"/>
<rect x="170.6" y="394.9" class="st1" width="2.4" height="12.2"/>
<rect x="183.4" y="394.9" class="st1" width="2.4" height="12.2"/>
<rect x="189.6" y="394.9" class="st1" width="2.4" height="12.2"/>
<rect x="195.7" y="394.9" class="st1" width="2.4" height="12.2"/>
<rect x="201.9" y="394.9" class="st1" width="2.4" height="12.2"/>
<rect x="214.7" y="394.9" class="st1" width="2.4" height="12.2"/>
<rect x="220.8" y="394.9" class="st1" width="2.4" height="12.2"/>
<rect x="227" y="394.9" class="st1" width="2.4" height="12.2"/>
<rect x="233.1" y="394.9" class="st1" width="2.4" height="12.2"/>
<rect x="245.9" y="394.9" class="st1" width="2.4" height="12.2"/>
<rect x="252.1" y="394.9" class="st1" width="2.4" height="12.2"/>
<rect x="258.2" y="394.9" class="st1" width="2.4" height="12.2"/>
<rect x="264.4" y="394.9" class="st1" width="2.4" height="12.2"/>
<rect x="277.2" y="394.9" class="st1" width="2.4" height="12.2"/>
<rect x="283.3" y="394.9" class="st1" width="2.4" height="12.2"/>
<rect x="289.5" y="394.9" class="st1" width="2.4" height="12.2"/>
<rect x="295.6" y="394.9" class="st1" width="2.4" height="12.2"/>
<rect x="308.4" y="394.9" class="st1" width="2.4" height="12.2"/>
<rect x="314.6" y="394.9" class="st1" width="2.4" height="12.2"/>
<rect x="320.7" y="394.9" class="st1" width="2.4" height="12.2"/>
<rect x="326.9" y="394.9" class="st1" width="2.4" height="12.2"/>
<rect x="339.7" y="394.9" class="st1" width="2.4" height="12.2"/>
<rect x="345.8" y="394.9" class="st1" width="2.4" height="12.2"/>
<rect x="352" y="394.9" class="st1" width="2.4" height="12.2"/>
<rect x="358.1" y="394.9" class="st1" width="2.4" height="12.2"/>
<rect x="370.9" y="394.9" class="st1" width="2.4" height="12.2"/>
<rect x="377.1" y="394.9" class="st1" width="2.4" height="12.2"/>
<rect x="383.2" y="394.9" class="st1" width="2.4" height="12.2"/>
<rect x="389.4" y="394.9" class="st1" width="2.4" height="12.2"/>
<rect x="402.2" y="394.9" class="st1" width="2.4" height="12.2"/>
<rect x="408.3" y="394.9" class="st1" width="2.4" height="12.2"/>
<rect x="414.5" y="394.9" class="st1" width="2.4" height="12.2"/>
<rect x="420.6" y="394.9" class="st1" width="2.4" height="12.2"/>
<rect x="433.4" y="394.9" class="st1" width="2.4" height="12.2"/>
<rect x="439.6" y="394.9" class="st1" width="2.4" height="12.2"/>
<rect x="445.7" y="394.9" class="st1" width="2.4" height="12.2"/>
<rect x="451.9" y="394.9" class="st1" width="2.4" height="12.2"/>
<rect x="464.7" y="394.9" class="st1" width="2.4" height="12.2"/>
<rect x="470.8" y="394.9" class="st1" width="2.4" height="12.2"/>
<rect x="477" y="394.9" class="st1" width="2.4" height="12.2"/>
<rect x="483.1" y="394.9" class="st1" width="2.4" height="12.2"/>
<rect x="495.9" y="394.9" class="st1" width="2.4" height="12.2"/>
<rect x="502.1" y="394.9" class="st1" width="2.4" height="12.2"/>
<rect x="508.2" y="394.9" class="st1" width="2.4" height="12.2"/>
<rect x="514.4" y="394.9" class="st1" width="2.4" height="12.2"/>
<rect x="527.1" y="394.9" class="st1" width="2.4" height="12.2"/>
<rect x="533.3" y="394.9" class="st1" width="2.4" height="12.2"/>
<rect x="539.5" y="394.9" class="st1" width="2.4" height="12.2"/>
<rect x="545.6" y="394.9" class="st1" width="2.4" height="12.2"/>
<rect x="558.4" y="394.9" class="st1" width="2.4" height="12.2"/>
<rect x="564.5" y="394.9" class="st1" width="2.4" height="12.2"/>
<rect x="570.7" y="394.9" class="st1" width="2.4" height="12.2"/>
<rect x="576.9" y="394.9" class="st1" width="2.4" height="12.2"/>
<rect x="589.6" y="394.9" class="st1" width="2.4" height="12.2"/>
<rect x="595.8" y="394.9" class="st1" width="2.4" height="12.2"/>
<rect x="601.9" y="394.9" class="st1" width="2.4" height="12.2"/>
<rect x="608.1" y="394.9" class="st1" width="2.4" height="12.2"/>
<rect x="620.9" y="394.9" class="st1" width="2.4" height="12.2"/>
<rect x="627" y="394.9" class="st1" width="2.4" height="12.2"/>
<rect x="633.2" y="394.9" class="st1" width="2.4" height="12.2"/>
<rect x="639.3" y="394.9" class="st1" width="2.4" height="12.2"/>
<rect x="652.1" y="394.9" class="st1" width="2.4" height="12.2"/>
<rect x="658.3" y="394.9" class="st1" width="2.4" height="12.2"/>
<rect x="664.4" y="394.9" class="st1" width="2.4" height="12.2"/>
<rect x="670.6" y="394.9" class="st1" width="2.4" height="12.2"/>
<rect x="683.4" y="394.9" class="st1" width="2.4" height="12.2"/>
<rect x="689.5" y="394.9" class="st1" width="2.4" height="12.2"/>
<rect x="695.7" y="394.9" class="st1" width="2.4" height="12.2"/>
<rect x="701.8" y="394.9" class="st1" width="2.4" height="12.2"/>
<rect x="714.6" y="394.9" class="st1" width="2.4" height="12.2"/>
<rect x="720.8" y="394.9" class="st1" width="2.4" height="12.2"/>
<rect x="726.9" y="394.9" class="st1" width="2.4" height="12.2"/>
<rect x="733.1" y="394.9" class="st1" width="2.4" height="12.2"/>
<polygon class="st1" points="160.8,553.4 155.4,556.1 160.8,558.8 "/>
<polygon class="st1" points="222.3,553.4 216.9,556.1 222.3,558.8 "/>
<polygon class="st1" points="285,558.8 285,553.4 279.6,556.1 "/>
<polygon class="st1" points="347.7,553.4 342.3,556.1 347.7,558.8 "/>
<polygon class="st1" points="511.4,553.4 511.4,558.8 516.8,556.1 "/>
<polygon class="st1" points="572.9,558.8 578.3,556.1 572.9,553.4 "/>
<polygon class="st1" points="636.3,553.4 636.3,558.8 641.7,556.1 "/>
<polygon class="st1" points="699,558.8 704.3,556.1 699,553.4 "/>
<path class="st1" d="M172.3,563.2l0-16.2H171c-0.1,0.1-0.2,0.2-0.3,0.4c-0.8,0.8-1.7,1.2-2.8,1.3v0.6c0.2,0,0.3,0,0.4,0
	c0.5,0.1,0.7,0.4,0.7,0.9v13c0,0,0,0.1,0,0.1c-0.1,0.3-0.5,0.4-1.4,0.4v0.3h6.1v-0.3h-0.3C172.6,563.7,172.3,563.5,172.3,563.2z"/>
<path class="st1" d="M195.3,550.5c-1.1-2.3-2.9-3.4-5.3-3.4c-1.3,0-2.4,0.4-3.4,1.2c-1.6,1.2-2.5,3.1-2.8,5.7
	c-0.3,2.5,0.1,4.8,1.2,6.8c1.2,2.2,2.8,3.3,5,3.3c1.2,0,2.2-0.4,3.2-1.1c1.5-1.2,2.5-3.1,2.9-5.6
	C196.6,554.8,196.3,552.5,195.3,550.5z M191.7,562c-0.4,1.1-1,1.6-1.7,1.6c-0.7,0-1.2-0.6-1.7-1.6c-0.4-1.1-0.7-2.4-0.8-3.9
	c-0.1-1.5-0.1-3,0.1-4.6c0.1-1.5,0.4-2.8,0.9-3.9c0.5-1.1,1-1.7,1.6-1.8c0,0,0,0,0.1,0c0.6,0,1.1,0.5,1.5,1.6c0.4,1.1,0.7,2.4,0.8,4
	c0.1,1.6,0.1,3.1,0.1,4.7C192.4,559.5,192.2,560.9,191.7,562z"/>
<path class="st1" d="M235.6,560.1l-0.5,0c-0.4,1-1.2,1.6-2.4,1.6h-5.1c0.3-0.3,0.7-0.7,1.2-1.1c2.1-2,3.4-3.3,4-3.9
	c2.4-2.6,3.3-4.8,2.7-6.8c0-0.2-0.1-0.5-0.3-0.7c-0.8-1.5-2.4-2.2-4.9-2.3c-1.5,0-2.7,0.3-3.8,0.8c-1.5,0.8-2.3,1.9-2.6,3.4
	c-0.2,1,0.1,1.8,0.7,2.4c0.7,0.7,1.5,0.9,2.4,0.8c1-0.2,1.6-0.8,1.8-1.8c-0.5,0-1-0.3-1.3-0.8c-0.5-0.8-0.5-1.6-0.1-2.6
	c0.5-1.1,1.4-1.7,2.7-1.7c0.5,0,0.8,0.2,1.1,0.5c1,1.4-1.3,6.2-6.7,14.2c-0.3,0.5-0.5,0.8-0.6,1l0.1,0.8h10.6L235.6,560.1z"/>
<path class="st1" d="M251.9,547.1c-1.3,0-2.4,0.4-3.4,1.2c-1.6,1.2-2.5,3.1-2.8,5.7c-0.3,2.5,0.1,4.8,1.2,6.8c1.2,2.2,2.8,3.3,5,3.3
	c1.2,0,2.2-0.4,3.2-1.1c1.5-1.2,2.5-3.1,2.9-5.6c0.5-2.6,0.2-4.9-0.8-6.8C256,548.2,254.3,547.1,251.9,547.1z M254.3,558
	c-0.1,1.6-0.3,2.9-0.8,4c-0.4,1.1-1,1.6-1.7,1.6c-0.7,0-1.2-0.6-1.7-1.6c-0.4-1.1-0.7-2.4-0.8-3.9c-0.1-1.5-0.1-3,0.1-4.6
	c0.1-1.5,0.4-2.8,0.9-3.9c0.5-1.1,1-1.7,1.6-1.8c0,0,0,0,0.1,0c0.6,0,1.1,0.5,1.5,1.6c0.4,1.1,0.7,2.4,0.8,4
	C254.4,554.9,254.4,556.5,254.3,558z"/>
<path class="st1" d="M605.5,547c-1.5,0-2.7,0.3-3.8,0.8c-1.5,0.8-2.3,1.9-2.6,3.4c-0.2,1,0.1,1.8,0.7,2.4c0.7,0.7,1.5,0.9,2.4,0.8
	c1-0.2,1.6-0.8,1.8-1.8c-0.5,0-1-0.3-1.3-0.8c-0.5-0.8-0.5-1.6-0.1-2.6c0.5-1.1,1.4-1.7,2.7-1.7c0.5,0,0.8,0.2,1.1,0.5
	c1,1.4-1.3,6.2-6.7,14.2c-0.3,0.5-0.5,0.8-0.6,1l0.1,0.8h10.6l1-3.9l-0.5,0c-0.4,1-1.2,1.6-2.4,1.6h-5.1c0.3-0.3,0.7-0.7,1.2-1.1
	c2.1-2,3.5-3.3,4-3.9c2.4-2.6,3.3-4.8,2.7-6.8c0-0.2-0.1-0.5-0.3-0.7C609.6,547.8,608,547,605.5,547z"/>
<path class="st1" d="M632.4,550.5c-1.1-2.3-2.9-3.4-5.3-3.4c-1.3,0-2.4,0.4-3.4,1.2c-1.6,1.2-2.5,3.1-2.8,5.7
	c-0.3,2.5,0.1,4.8,1.2,6.8c1.2,2.2,2.8,3.3,5,3.3c1.2,0,2.2-0.4,3.2-1.1c1.5-1.2,2.5-3.1,2.9-5.6
	C633.7,554.8,633.4,552.5,632.4,550.5z M628.8,562c-0.4,1.1-1,1.6-1.7,1.6c-0.7,0-1.2-0.6-1.7-1.6c-0.4-1.1-0.7-2.4-0.8-3.9
	c-0.1-1.5-0.1-3,0.1-4.6c0.1-1.5,0.4-2.8,0.9-3.9c0.5-1.1,1-1.7,1.6-1.8c0,0,0,0,0.1,0c0.6,0,1.1,0.5,1.5,1.6c0.4,1.1,0.7,2.4,0.8,4
	c0.1,1.6,0.1,3.1,0.1,4.7C629.5,559.5,629.2,560.9,628.8,562z"/>
<path class="st1" d="M297.6,560.5c0.6-1.4,0.6-2.7,0-3.9c-0.7-1.3-1.8-1.9-3.4-1.9c1.6-0.6,2.6-1.5,3-2.8c0.4-1.2,0.2-2.3-0.7-3.3
	c-1-1.2-2.6-1.7-4.7-1.5c-1.1,0.1-2.1,0.5-3,1.1c-1.2,0.8-1.9,1.8-2.1,3.1c-0.2,1.1,0.1,1.8,0.9,2.2c0.9,0.4,1.8,0.2,2.7-0.5
	c0.5-0.4,0.7-0.7,0.8-1c0,0,0,0-0.1,0c-0.3,0-0.5-0.2-0.7-0.5c-0.4-0.6-0.5-1.3-0.3-2.1c0.3-1,0.9-1.5,1.9-1.5c1,0,1.6,0.5,1.8,1.4
	c0.2,1.1-0.1,2.3-0.8,3.7c-0.7,1.2-1.4,1.9-2.2,2v0.5c0.1,0,0.2,0,0.2,0c1.3,0.1,2.3,0.8,2.9,2.3c0.6,1.3,0.6,2.6,0.2,3.9
	c-0.5,1.3-1.3,2-2.6,2c-0.8,0-1.4-0.3-1.8-0.8c-0.4-0.7-0.4-1.4,0.1-2.4c0.4-0.8,0.9-1.1,1.4-1c-0.1-0.3-0.2-0.6-0.4-0.8
	c-0.6-0.6-1.4-0.9-2.4-0.7c-1.2,0.2-1.9,0.8-2.3,1.9c0,0.2-0.1,0.5-0.1,0.7c-0.1,2.3,1.7,3.5,5.5,3.5c0.6,0,1.3-0.1,1.9-0.3
	C295.4,563.2,296.8,562.2,297.6,560.5z"/>
<path class="st1" d="M314.4,547.1c-1.3,0-2.4,0.4-3.4,1.2c-1.6,1.2-2.5,3.1-2.8,5.7c-0.3,2.5,0.1,4.8,1.2,6.8c1.2,2.2,2.8,3.3,5,3.3
	c1.2,0,2.2-0.4,3.2-1.1c1.5-1.2,2.5-3.1,2.9-5.6c0.5-2.6,0.2-4.9-0.8-6.8C318.5,548.2,316.8,547.1,314.4,547.1z M316.8,558
	c-0.1,1.6-0.3,2.9-0.8,4c-0.4,1.1-1,1.6-1.7,1.6c-0.7,0-1.2-0.6-1.7-1.6c-0.4-1.1-0.7-2.4-0.8-3.9c-0.1-1.5-0.1-3,0-4.6
	c0.1-1.5,0.4-2.8,0.9-3.9c0.5-1.1,1-1.7,1.6-1.8c0,0,0,0,0.1,0c0.6,0,1.1,0.5,1.5,1.6c0.4,1.1,0.7,2.4,0.8,4
	C316.9,554.9,316.9,556.5,316.8,558z"/>
<path class="st1" d="M547.4,560.5c0.6-1.4,0.6-2.7,0-3.9c-0.7-1.3-1.8-1.9-3.4-1.9c1.6-0.6,2.5-1.5,3-2.8c0.4-1.2,0.2-2.3-0.7-3.3
	c-1-1.2-2.6-1.7-4.7-1.5c-1.1,0.1-2.1,0.5-3,1.1c-1.2,0.8-1.9,1.8-2.1,3.1c-0.2,1.1,0.1,1.8,0.9,2.2c0.9,0.4,1.8,0.2,2.8-0.5
	c0.5-0.4,0.7-0.7,0.8-1c0,0,0,0-0.1,0c-0.3,0-0.5-0.2-0.8-0.5c-0.4-0.6-0.5-1.3-0.3-2.1c0.3-1,0.9-1.5,1.9-1.5c1,0,1.6,0.5,1.8,1.4
	c0.2,1.1-0.1,2.3-0.8,3.7c-0.7,1.2-1.4,1.9-2.2,2v0.5c0.1,0,0.1,0,0.2,0c1.3,0.1,2.3,0.8,2.9,2.3c0.6,1.3,0.6,2.6,0.2,3.9
	c-0.5,1.3-1.3,2-2.6,2c-0.8,0-1.4-0.3-1.8-0.8c-0.4-0.7-0.4-1.4,0.1-2.4c0.4-0.8,0.9-1.1,1.4-1c-0.1-0.3-0.2-0.6-0.4-0.8
	c-0.6-0.6-1.4-0.9-2.4-0.7c-1.2,0.2-1.9,0.8-2.3,1.9c0,0.2-0.1,0.5-0.1,0.7c-0.1,2.3,1.7,3.5,5.5,3.5c0.6,0,1.3-0.1,1.9-0.3
	C545.2,563.2,546.6,562.2,547.4,560.5z"/>
<path class="st1" d="M564.2,547.1c-1.3,0-2.4,0.4-3.4,1.2c-1.6,1.2-2.5,3.1-2.8,5.7c-0.3,2.5,0.1,4.8,1.2,6.8c1.2,2.2,2.8,3.3,5,3.3
	c1.2,0,2.2-0.4,3.2-1.1c1.5-1.2,2.5-3.1,2.9-5.6c0.5-2.6,0.2-4.9-0.8-6.8C568.3,548.2,566.6,547.1,564.2,547.1z M566.6,558
	c-0.1,1.6-0.3,2.9-0.8,4c-0.4,1.1-1,1.6-1.7,1.6c-0.7,0-1.2-0.6-1.7-1.6c-0.4-1.1-0.7-2.4-0.8-3.9c-0.1-1.5-0.1-3,0.1-4.6
	c0.1-1.5,0.4-2.8,0.9-3.9c0.5-1.1,1-1.7,1.6-1.8c0,0,0,0,0.1,0c0.6,0,1.1,0.5,1.5,1.6c0.4,1.1,0.7,2.4,0.8,4
	C566.7,554.9,566.7,556.5,566.6,558z"/>
<path class="st1" d="M360.1,563.7c-0.6,0-0.9-0.2-0.9-0.5c0-2,0-4.9,0-8.8V547h-1.9c-1.2,1.4-3,3.5-5.4,6.3
	c-1.2,1.4-2.1,2.5-2.7,3.2l6.8,0v6.7c0,0.1,0,0.1-0.1,0.2c-0.1,0.2-0.6,0.3-1.4,0.3v0.3h6.1v-0.3h-0.3
	C360.3,563.7,360.2,563.7,360.1,563.7z M351.1,555.6l4.9-5.8l0,5.8L351.1,555.6z"/>
<path class="st1" d="M382.3,550.5c-1.1-2.3-2.9-3.4-5.3-3.4c-1.3,0-2.4,0.4-3.4,1.2c-1.6,1.2-2.5,3.1-2.8,5.7
	c-0.3,2.5,0.1,4.8,1.2,6.8c1.2,2.2,2.8,3.3,5,3.3c1.2,0,2.2-0.4,3.2-1.1c1.5-1.2,2.5-3.1,2.9-5.6
	C383.5,554.8,383.2,552.5,382.3,550.5z M379.4,558c-0.1,1.6-0.3,2.9-0.8,4c-0.4,1.1-1,1.6-1.7,1.6c-0.7,0-1.2-0.6-1.7-1.6
	c-0.4-1.1-0.7-2.4-0.8-3.9c-0.1-1.5-0.1-3,0-4.6c0.1-1.5,0.4-2.8,0.9-3.9c0.5-1.1,1-1.7,1.6-1.8c0,0,0,0,0.1,0
	c0.6,0,1.1,0.5,1.5,1.6c0.4,1.1,0.7,2.4,0.8,4C379.5,554.9,379.5,556.5,379.4,558z"/>
<path class="st1" d="M485.2,563.7c-0.6,0-0.9-0.2-0.9-0.5c0-2,0-4.9,0-8.8V547h-1.9c-1.2,1.4-3,3.5-5.4,6.3
	c-1.2,1.4-2.1,2.5-2.7,3.2l6.8,0v6.7c0,0.1,0,0.1-0.1,0.2c-0.1,0.2-0.6,0.3-1.4,0.3v0.3h6.1v-0.3h-0.3
	C485.4,563.7,485.3,563.7,485.2,563.7z M476.2,555.6l4.9-5.8l0,5.8L476.2,555.6z"/>
<path class="st1" d="M507.4,550.5c-1.1-2.3-2.9-3.4-5.3-3.4c-1.3,0-2.4,0.4-3.4,1.2c-1.6,1.2-2.5,3.1-2.8,5.7
	c-0.3,2.5,0.1,4.8,1.2,6.8c1.2,2.2,2.8,3.3,5,3.3c1.2,0,2.2-0.4,3.2-1.1c1.5-1.2,2.5-3.1,2.9-5.6
	C508.7,554.8,508.4,552.5,507.4,550.5z M504.5,558c-0.1,1.6-0.3,2.9-0.8,4c-0.4,1.1-1,1.6-1.7,1.6c-0.7,0-1.2-0.6-1.7-1.6
	c-0.4-1.1-0.7-2.4-0.8-3.9c-0.1-1.5-0.1-3,0-4.6c0.1-1.5,0.4-2.8,0.9-3.9c0.5-1.1,1-1.7,1.6-1.8c0,0,0,0,0.1,0
	c0.6,0,1.1,0.5,1.5,1.6c0.4,1.1,0.7,2.4,0.8,4C504.6,554.9,504.6,556.5,504.5,558z"/>
<path class="st1" d="M420.8,562.6c1.3-1,2-2.2,2.2-3.7c0.1-0.7,0-1.3-0.1-1.9c-0.4-1.7-1.5-2.8-3.3-3.3c-1.7-0.5-3.3-0.4-4.9,0.3
	l0.7-3.8l6.9,0c0.3-1.5,0.6-2.5,0.8-3.2h-0.6c-0.1,0.1-0.2,0.1-0.4,0.2c-0.6,0.2-3,0.2-7.2,0.2l-1.3,7.4h0.5c1.6-0.6,3-0.5,4.1,0.5
	c1,0.9,1.5,2.1,1.4,3.6c-0.1,0.8-0.3,1.5-0.5,2.2c-0.7,1.8-1.6,2.6-2.7,2.5c-0.6-0.1-1-0.3-1.3-0.8c-0.3-0.5-0.3-1.1,0-1.6
	c0.3-0.5,0.7-0.6,1.1-0.3c0.2-0.1,0.4-0.2,0.5-0.4c0.3-0.6,0.3-1.2-0.1-1.8c-0.4-0.9-1.2-1.1-2.2-0.8c-0.5,0.2-0.9,0.6-1.3,1.2
	c-0.7,1-0.8,2-0.5,3c0.4,1.4,1.6,2.1,3.6,2.1C417.9,564.1,419.5,563.6,420.8,562.6z"/>
<path class="st1" d="M439.4,547.1c-1.3,0-2.4,0.4-3.4,1.2c-1.6,1.2-2.5,3.1-2.8,5.7c-0.3,2.5,0.1,4.8,1.2,6.8c1.2,2.2,2.8,3.3,5,3.3
	c1.2,0,2.2-0.4,3.2-1.1c1.5-1.2,2.5-3.1,2.9-5.6c0.4-2.6,0.2-4.9-0.8-6.8C443.6,548.2,441.8,547.1,439.4,547.1z M441.1,562
	c-0.4,1.1-1,1.6-1.7,1.6c-0.7,0-1.2-0.6-1.7-1.6c-0.4-1.1-0.7-2.4-0.8-3.9c-0.1-1.5-0.1-3,0.1-4.6c0.1-1.5,0.4-2.8,0.9-3.9
	c0.4-1.1,1-1.7,1.6-1.8c0,0,0,0,0.1,0c0.6,0,1,0.5,1.5,1.6c0.4,1.1,0.7,2.4,0.8,4c0.1,1.6,0.1,3.1,0.1,4.7
	C441.8,559.5,441.5,560.9,441.1,562z"/>
<path class="st1" d="M671.9,563.2l-0.1-16.2h-1.2c-0.1,0.1-0.2,0.2-0.3,0.4c-0.8,0.8-1.7,1.2-2.7,1.3v0.6c0.1,0,0.3,0,0.4,0
	c0.5,0.1,0.7,0.4,0.7,0.9v13c0,0,0,0.1,0,0.1c-0.1,0.3-0.5,0.4-1.4,0.4v0.3h6.1v-0.3H673C672.2,563.7,671.9,563.5,671.9,563.2z"/>
<path class="st1" d="M694.9,550.5c-1.1-2.3-2.8-3.4-5.3-3.4c-1.3,0-2.4,0.4-3.4,1.2c-1.6,1.2-2.5,3.1-2.8,5.7
	c-0.3,2.5,0.1,4.8,1.2,6.8c1.2,2.2,2.8,3.3,5,3.3c1.2,0,2.2-0.4,3.2-1.1c1.5-1.2,2.5-3.1,2.9-5.6
	C696.2,554.8,695.9,552.5,694.9,550.5z M692.1,558c-0.1,1.6-0.3,2.9-0.8,4c-0.4,1.1-1,1.6-1.7,1.6c-0.7,0-1.2-0.6-1.7-1.6
	c-0.4-1.1-0.7-2.4-0.8-3.9c-0.1-1.5-0.1-3,0.1-4.6c0.1-1.5,0.4-2.8,0.9-3.9c0.4-1.1,1-1.7,1.6-1.8c0,0,0,0,0.1,0
	c0.6,0,1,0.5,1.5,1.6c0.4,1.1,0.7,2.4,0.8,4C692.1,554.9,692.2,556.5,692.1,558z"/>
<polygon class="st1" points="695.3,304.9 695.3,310.2 700.7,307.6 "/>
<polygon class="st1" points="633.8,304.9 633.8,310.2 639.2,307.6 "/>
<polygon class="st1" points="571.1,304.9 571.1,310.2 576.4,307.6 "/>
<polygon class="st1" points="508.4,304.9 508.4,310.2 513.7,307.6 "/>
<polygon class="st1" points="344.7,304.9 339.3,307.6 344.7,310.2 "/>
<polygon class="st1" points="283.1,304.9 277.7,307.6 283.1,310.2 "/>
<polygon class="st1" points="219.7,304.9 214.4,307.6 219.7,310.2 "/>
<polygon class="st1" points="157.1,304.9 151.7,307.6 157.1,310.2 "/>
<path class="st1" d="M683.8,300.5l0.1,16.1h1.2c0.1-0.1,0.2-0.2,0.3-0.3c0.8-0.8,1.7-1.2,2.8-1.3v-0.6c-0.2,0-0.3,0-0.4,0
	c-0.5-0.1-0.7-0.4-0.7-0.9v-13c0,0,0-0.1,0-0.1c0.1-0.3,0.5-0.4,1.4-0.4v-0.3h-6.1v0.3h0.3C683.4,299.9,683.8,300.1,683.8,300.5z"/>
<path class="st1" d="M669.4,315.4c1.6-1.2,2.5-3.1,2.8-5.7c0.3-2.5-0.1-4.8-1.2-6.8c-1.2-2.2-2.8-3.3-5-3.3c-1.2,0-2.2,0.4-3.2,1.1
	c-1.5,1.2-2.5,3.1-2.9,5.6c-0.5,2.6-0.2,4.9,0.8,6.8c1.1,2.3,2.9,3.4,5.3,3.4C667.3,316.5,668.4,316.1,669.4,315.4z M665.9,315.9
	c-0.6,0-1.1-0.5-1.5-1.6c-0.4-1.1-0.7-2.4-0.8-4c-0.1-1.6-0.1-3.1-0.1-4.7c0.1-1.6,0.3-2.9,0.8-4c0.4-1.1,1-1.6,1.7-1.6
	c0.7,0,1.2,0.6,1.7,1.6c0.4,1.1,0.7,2.4,0.8,3.9c0.1,1.5,0.1,3,0,4.6c-0.1,1.5-0.4,2.8-0.9,3.9C667.1,315.2,666.5,315.8,665.9,315.9
	C665.9,315.9,665.9,315.9,665.9,315.9z"/>
<path class="st1" d="M625.8,316.7c1.5,0,2.7-0.3,3.8-0.8c1.5-0.8,2.3-1.9,2.6-3.4c0.2-1-0.1-1.8-0.7-2.4c-0.7-0.7-1.5-0.9-2.4-0.8
	c-1,0.2-1.6,0.8-1.8,1.8c0.5,0,1,0.3,1.3,0.8c0.5,0.8,0.5,1.6,0.1,2.6c-0.5,1.1-1.4,1.7-2.7,1.7c-0.5,0-0.8-0.2-1.1-0.5
	c-1-1.4,1.3-6.2,6.7-14.2c0.3-0.5,0.5-0.8,0.6-1l0-0.8h-10.6l-1,3.9l0.5,0c0.4-1,1.2-1.6,2.4-1.6h5.1c-0.3,0.3-0.7,0.7-1.2,1.1
	c-2.1,2-3.5,3.3-4,3.9c-2.4,2.6-3.3,4.8-2.7,6.8c0.1,0.2,0.1,0.5,0.3,0.7C621.7,315.9,623.3,316.6,625.8,316.7z"/>
<path class="st1" d="M604.2,316.6c1.3,0,2.4-0.4,3.4-1.2c1.6-1.2,2.5-3.1,2.8-5.7c0.3-2.5-0.1-4.8-1.2-6.8c-1.2-2.2-2.8-3.3-5-3.3
	c-1.2,0-2.2,0.4-3.2,1.1c-1.5,1.2-2.5,3.1-2.9,5.6c-0.4,2.6-0.2,4.9,0.8,6.8C600,315.4,601.8,316.6,604.2,316.6z M601.7,305.7
	c0.1-1.6,0.3-2.9,0.8-4c0.4-1.1,1-1.6,1.7-1.6c0.7,0,1.2,0.6,1.7,1.6c0.4,1.1,0.7,2.4,0.8,3.9c0.1,1.5,0.1,3,0,4.6
	c-0.1,1.5-0.4,2.8-0.9,3.9c-0.4,1.1-1,1.7-1.6,1.8c0,0,0,0,0,0c-0.6,0-1.1-0.5-1.5-1.6c-0.4-1.1-0.7-2.4-0.8-4
	C601.7,308.8,601.7,307.2,601.7,305.7z"/>
<path class="st1" d="M250.5,316.7c1.5,0,2.7-0.3,3.8-0.8c1.5-0.8,2.3-1.9,2.6-3.4c0.2-1-0.1-1.8-0.7-2.4c-0.7-0.7-1.5-0.9-2.4-0.8
	c-1,0.2-1.6,0.8-1.8,1.8c0.5,0,1,0.3,1.3,0.8c0.5,0.8,0.5,1.6,0.1,2.6c-0.5,1.1-1.4,1.7-2.7,1.7c-0.5,0-0.8-0.2-1.1-0.5
	c-1-1.4,1.2-6.2,6.7-14.2c0.3-0.5,0.5-0.8,0.6-1l0-0.8h-10.6l-1,3.9l0.5,0c0.4-1,1.2-1.6,2.4-1.6h5.1c-0.3,0.3-0.7,0.7-1.2,1.1
	c-2.1,2-3.5,3.3-4,3.9c-2.4,2.6-3.3,4.8-2.7,6.8c0.1,0.2,0.1,0.5,0.3,0.7C246.4,315.9,248.1,316.6,250.5,316.7z"/>
<path class="st1" d="M228.9,316.6c1.3,0,2.4-0.4,3.4-1.2c1.6-1.2,2.5-3.1,2.8-5.7c0.3-2.5-0.1-4.8-1.2-6.8c-1.2-2.2-2.8-3.3-5-3.3
	c-1.2,0-2.2,0.4-3.2,1.1c-1.5,1.2-2.5,3.1-2.9,5.6c-0.5,2.6-0.2,4.9,0.8,6.8C224.7,315.4,226.5,316.6,228.9,316.6z M226.5,305.7
	c0.1-1.6,0.3-2.9,0.8-4c0.4-1.1,1-1.6,1.7-1.6c0.7,0,1.2,0.6,1.7,1.6c0.4,1.1,0.7,2.4,0.8,3.9c0.1,1.5,0.1,3,0,4.6
	c-0.1,1.5-0.4,2.8-0.9,3.9c-0.5,1.1-1,1.7-1.6,1.8c0,0,0,0-0.1,0c-0.6,0-1.1-0.5-1.5-1.6c-0.4-1.1-0.7-2.4-0.8-4
	C226.4,308.8,226.4,307.2,226.5,305.7z"/>
<path class="st1" d="M561.8,308.9c-1.5,0.6-2.5,1.5-3,2.8c-0.4,1.2-0.2,2.3,0.7,3.3c1.1,1.2,2.6,1.7,4.7,1.5c1.1-0.1,2.1-0.5,3-1.1
	c1.2-0.8,1.9-1.9,2.1-3.1c0.2-1.1-0.1-1.8-0.9-2.2c-0.9-0.4-1.8-0.2-2.8,0.5c-0.5,0.4-0.7,0.7-0.7,1c0,0,0,0,0,0
	c0.3,0.1,0.5,0.2,0.8,0.5c0.4,0.6,0.5,1.3,0.3,2.1c-0.3,1-0.9,1.4-1.9,1.4c-1,0-1.6-0.5-1.8-1.4c-0.2-1.1,0.1-2.3,0.8-3.7
	c0.7-1.2,1.4-1.9,2.2-2v-0.6c-0.1,0-0.2,0-0.2,0c-1.3-0.1-2.3-0.8-2.9-2.3c-0.6-1.3-0.6-2.6-0.2-3.9c0.5-1.3,1.3-2,2.6-2
	c0.8,0,1.4,0.3,1.8,0.8c0.4,0.7,0.4,1.4-0.1,2.4c-0.4,0.7-0.9,1.1-1.4,1c0.1,0.3,0.2,0.6,0.4,0.8c0.6,0.6,1.4,0.9,2.4,0.7
	c1.2-0.2,1.9-0.8,2.3-1.9c0-0.2,0.1-0.5,0.1-0.7c0.1-2.3-1.7-3.5-5.5-3.5c-0.6,0-1.3,0.1-1.9,0.3c-2.1,0.5-3.4,1.6-4.2,3.2
	c-0.6,1.4-0.6,2.7,0,3.9C559.1,308.3,560.3,308.9,561.8,308.9z"/>
<path class="st1" d="M541.7,316.6c1.3,0,2.4-0.4,3.4-1.2c1.6-1.2,2.5-3.1,2.8-5.7c0.3-2.5-0.1-4.8-1.2-6.8c-1.2-2.2-2.8-3.3-5-3.3
	c-1.2,0-2.2,0.4-3.2,1.1c-1.5,1.2-2.5,3.1-2.9,5.6c-0.4,2.6-0.2,4.9,0.8,6.8C537.5,315.4,539.3,316.6,541.7,316.6z M539.3,305.7
	c0.1-1.6,0.3-2.9,0.8-4c0.4-1.1,1-1.6,1.7-1.6c0.7,0,1.2,0.6,1.7,1.6c0.4,1.1,0.7,2.4,0.8,3.9c0.1,1.5,0.1,3-0.1,4.6
	c-0.1,1.5-0.4,2.8-0.9,3.9c-0.4,1.1-1,1.7-1.6,1.8c0,0,0,0-0.1,0c-0.6,0-1-0.5-1.4-1.6c-0.4-1.1-0.7-2.4-0.8-4
	C539.2,308.8,539.2,307.2,539.3,305.7z"/>
<path class="st1" d="M312.1,308.9c-1.6,0.6-2.6,1.5-3,2.8c-0.4,1.2-0.2,2.3,0.7,3.3c1.1,1.2,2.6,1.7,4.7,1.5c1.1-0.1,2.1-0.5,3-1.1
	c1.2-0.8,1.9-1.9,2.1-3.1c0.2-1.1-0.1-1.8-0.9-2.2c-0.9-0.4-1.8-0.2-2.7,0.5c-0.5,0.4-0.7,0.7-0.8,1c0,0,0,0,0,0
	c0.3,0.1,0.5,0.2,0.8,0.5c0.4,0.6,0.5,1.3,0.3,2.1c-0.3,1-0.9,1.4-1.9,1.4c-1,0-1.6-0.5-1.8-1.4c-0.2-1.1,0.1-2.3,0.8-3.7
	c0.7-1.2,1.4-1.9,2.2-2v-0.6c-0.1,0-0.2,0-0.2,0c-1.3-0.1-2.3-0.8-2.9-2.3c-0.6-1.3-0.6-2.6-0.2-3.9c0.5-1.3,1.3-2,2.6-2
	c0.8,0,1.4,0.3,1.8,0.8c0.4,0.7,0.4,1.4-0.1,2.4c-0.4,0.7-0.9,1.1-1.4,1c0.1,0.3,0.2,0.6,0.4,0.8c0.6,0.6,1.4,0.9,2.4,0.7
	c1.2-0.2,1.9-0.8,2.3-1.9c0-0.2,0.1-0.5,0.1-0.7c0.1-2.3-1.7-3.5-5.5-3.5c-0.6,0-1.3,0.1-1.9,0.3c-2,0.5-3.4,1.6-4.2,3.2
	c-0.6,1.4-0.6,2.7,0,3.9C309.3,308.3,310.5,308.9,312.1,308.9z"/>
<path class="st1" d="M291.9,299.6c-1.2,0-2.2,0.4-3.2,1.1c-1.5,1.2-2.5,3.1-2.9,5.6c-0.4,2.6-0.2,4.9,0.8,6.8
	c1.1,2.3,2.9,3.4,5.3,3.4c1.3,0,2.4-0.4,3.4-1.2c1.6-1.2,2.5-3.1,2.8-5.7c0.3-2.5-0.1-4.8-1.2-6.8
	C295.8,300.7,294.1,299.6,291.9,299.6z M294.3,310.2c-0.1,1.5-0.4,2.8-0.9,3.9c-0.4,1.1-1,1.7-1.6,1.8c0,0,0,0,0,0
	c-0.6,0-1.1-0.5-1.5-1.6c-0.4-1.1-0.7-2.4-0.8-4c-0.1-1.6-0.1-3.1-0.1-4.7c0.1-1.6,0.3-2.9,0.8-4c0.4-1.1,1-1.6,1.7-1.6
	c0.7,0,1.2,0.6,1.7,1.6c0.4,1.1,0.7,2.4,0.8,3.9C294.4,307.1,294.4,308.6,294.3,310.2z"/>
<path class="st1" d="M496.8,300.4c0,2,0,4.9,0,8.8v7.4h1.9c1.2-1.4,3-3.5,5.4-6.3c1.2-1.4,2.1-2.5,2.7-3.2l-6.8,0v-6.7
	c0-0.1,0-0.1,0.1-0.2c0.1-0.2,0.6-0.3,1.4-0.3v-0.3h-6.1v0.3h0.3c0.1,0,0.2,0,0.3,0C496.5,300,496.8,300.1,496.8,300.4z M505,308
	l-4.9,5.8l0-5.8L505,308z"/>
<path class="st1" d="M479.1,316.6c1.3,0,2.4-0.4,3.4-1.2c1.6-1.2,2.5-3.1,2.8-5.7c0.3-2.5-0.1-4.8-1.2-6.8c-1.2-2.2-2.8-3.3-5-3.3
	c-1.2,0-2.2,0.4-3.2,1.1c-1.5,1.2-2.5,3.1-2.9,5.6c-0.4,2.6-0.2,4.9,0.8,6.8C474.9,315.4,476.7,316.6,479.1,316.6z M476.6,305.7
	c0.1-1.6,0.3-2.9,0.8-4c0.4-1.1,1-1.6,1.7-1.6c0.7,0,1.2,0.6,1.7,1.6c0.4,1.1,0.7,2.4,0.8,3.9c0.1,1.5,0.1,3-0.1,4.6
	c-0.1,1.5-0.4,2.8-0.9,3.9c-0.4,1.1-1,1.7-1.6,1.8c0,0,0,0-0.1,0c-0.5,0-1-0.5-1.4-1.6c-0.4-1.1-0.7-2.4-0.8-4
	C476.6,308.8,476.6,307.2,476.6,305.7z"/>
<path class="st1" d="M371.7,300.4c0,2,0,4.9,0,8.8v7.4h1.9c1.2-1.4,3-3.5,5.4-6.3c1.2-1.4,2.1-2.5,2.7-3.2l-6.8,0v-6.7
	c0-0.1,0-0.1,0.1-0.2c0.1-0.2,0.6-0.3,1.4-0.3v-0.3h-6.1v0.3h0.3c0.1,0,0.2,0,0.3,0C371.4,300,371.7,300.1,371.7,300.4z M379.8,308
	l-4.9,5.8l0-5.8L379.8,308z"/>
<path class="st1" d="M353.9,316.6c1.3,0,2.4-0.4,3.4-1.2c1.6-1.2,2.5-3.1,2.8-5.7c0.3-2.5-0.1-4.8-1.2-6.8c-1.2-2.2-2.8-3.3-5-3.3
	c-1.2,0-2.2,0.4-3.2,1.1c-1.5,1.2-2.5,3.1-2.9,5.6c-0.4,2.6-0.2,4.9,0.8,6.8C349.8,315.4,351.5,316.6,353.9,316.6z M351.5,305.7
	c0.1-1.6,0.3-2.9,0.8-4c0.4-1.1,1-1.6,1.7-1.6c0.7,0,1.2,0.6,1.7,1.6c0.4,1.1,0.7,2.4,0.8,3.9c0.1,1.5,0.1,3-0.1,4.6
	c-0.1,1.5-0.4,2.8-0.9,3.9c-0.4,1.1-1,1.7-1.6,1.8c0,0,0,0-0.1,0c-0.5,0-1-0.5-1.4-1.6c-0.4-1.1-0.7-2.4-0.8-4
	C351.5,308.8,351.4,307.2,351.5,305.7z"/>
<path class="st1" d="M433.8,313.5c-0.4,1.5-0.6,2.5-0.8,3.2h0.6c0.1-0.1,0.2-0.1,0.4-0.2c0.6-0.1,3-0.2,7.2-0.2l1.3-7.4H442
	c-1.6,0.6-3,0.5-4.1-0.5c-1-0.9-1.5-2.1-1.4-3.6c0.1-0.8,0.3-1.5,0.5-2.2c0.7-1.8,1.6-2.6,2.7-2.5c0.6,0,1,0.3,1.3,0.7
	c0.3,0.5,0.3,1.1,0,1.7c-0.3,0.5-0.7,0.6-1.1,0.3c-0.2,0.1-0.4,0.2-0.5,0.4c-0.3,0.6-0.3,1.2,0.1,1.8c0.4,0.9,1.2,1.2,2.2,0.8
	c0.5-0.2,0.9-0.6,1.3-1.2c0.7-1,0.8-2,0.5-3c-0.4-1.4-1.6-2.1-3.6-2.1c-1.8,0-3.4,0.5-4.7,1.5c-1.3,1-2,2.2-2.2,3.7
	c-0.1,0.7,0,1.3,0.1,1.9c0.4,1.7,1.5,2.8,3.3,3.3c1.7,0.5,3.3,0.4,4.9-0.3l-0.7,3.8L433.8,313.5z"/>
<path class="st1" d="M420,315.4c1.6-1.2,2.5-3.1,2.8-5.7c0.3-2.5-0.1-4.8-1.2-6.8c-1.2-2.2-2.8-3.3-5-3.3c-1.2,0-2.2,0.4-3.2,1.1
	c-1.5,1.2-2.5,3.1-2.9,5.6c-0.5,2.6-0.2,4.9,0.8,6.8c1.1,2.3,2.9,3.4,5.3,3.4C417.9,316.5,419,316.1,420,315.4z M416.5,315.9
	c-0.6,0-1.1-0.5-1.5-1.6c-0.4-1.1-0.7-2.4-0.8-4c-0.1-1.6-0.1-3.1-0.1-4.7c0.1-1.6,0.3-2.9,0.8-4c0.4-1.1,1-1.6,1.7-1.6
	c0.7,0,1.2,0.6,1.7,1.6c0.4,1.1,0.7,2.4,0.8,3.9c0.1,1.5,0.1,3-0.1,4.6c-0.1,1.5-0.4,2.8-0.9,3.9
	C417.7,315.2,417.2,315.8,416.5,315.9C416.5,315.9,416.5,315.9,416.5,315.9z"/>
<path class="st1" d="M184.2,300.5l0,16.1h1.2c0.1-0.1,0.2-0.2,0.3-0.3c0.8-0.8,1.7-1.2,2.8-1.3v-0.6c-0.2,0-0.3,0-0.4,0
	c-0.5-0.1-0.7-0.4-0.7-0.9v-13c0,0,0-0.1,0-0.1c0.1-0.3,0.5-0.4,1.4-0.4v-0.3h-6.1v0.3h0.3C183.8,299.9,184.2,300.1,184.2,300.5z"/>
<path class="st1" d="M169.8,315.4c1.6-1.2,2.5-3.1,2.8-5.7c0.3-2.5-0.1-4.8-1.2-6.8c-1.2-2.2-2.8-3.3-5-3.3c-1.2,0-2.2,0.4-3.2,1.1
	c-1.5,1.2-2.5,3.1-2.9,5.6c-0.5,2.6-0.2,4.9,0.8,6.8c1.1,2.3,2.9,3.4,5.3,3.4C167.7,316.5,168.8,316.1,169.8,315.4z M166.3,315.9
	c-0.6,0-1-0.5-1.5-1.6c-0.4-1.1-0.7-2.4-0.8-4c-0.1-1.6-0.1-3.1-0.1-4.7c0.1-1.6,0.3-2.9,0.8-4c0.4-1.1,1-1.6,1.7-1.6
	c0.7,0,1.2,0.6,1.7,1.6c0.4,1.1,0.7,2.4,0.8,3.9c0.1,1.5,0.1,3-0.1,4.6c-0.1,1.5-0.4,2.8-0.9,3.9C167.5,315.2,167,315.8,166.3,315.9
	C166.3,315.9,166.3,315.9,166.3,315.9z"/>
<path class="st1" d="M742.5,256.3h-3.7h-27.6h-3.7H680h-3.7h-27.6h-3.7h-27.6h-3.7h-27.6h-3.7H555h-3.7h-27.6h-3.7h-27.6h-3.7h-27.6
	h-3.7h-27.6h-3.7h-27.6h-3.7h-27.6h-3.7h-27.6h-3.7h-27.6h-3.7h-27.6h-3.7h-27.6h-3.7h-27.6h-3.7h-27.6h-3.7h-27.6h-3.7h-27.6h-3.7
	H47v351.3h66.9h3.7h27.6h3.7h27.6h3.7h27.6h3.7h27.6h3.7h27.6h3.7h27.6h3.7h27.6h3.7h27.6h3.7h27.6h3.7h27.6h3.7h27.6h3.7h27.6h3.7
	h27.6h3.7h27.6h3.7h27.6h3.7h27.6h3.7h27.6h3.7h27.6h3.7h27.6h3.7h27.6h3.7H817V256.3H742.5z M113.9,604H50.7V260h63.3V604z
	 M145.2,604h-27.6V260h3.3v12h2.4v-12h3.7v12h2.4v-12h3.7v12h2.4v-12h3.7v12h2.4v-12h3.3V604z M176.4,604h-27.6V260h3.3v12h2.4v-12
	h3.7v12h2.4v-12h3.7v12h2.4v-12h3.7v12h2.4v-12h3.3V604z M207.7,604h-27.6V260h3.3v12h2.4v-12h3.7v12h2.4v-12h3.7v12h2.4v-12h3.7v12
	h2.4v-12h3.3V604z M238.9,604h-27.6V260h3.3v12h2.4v-12h3.7v12h2.4v-12h3.7v12h2.4v-12h3.7v12h2.4v-12h3.3V604z M270.2,604h-27.6
	V260h3.3v12h2.4v-12h3.7v12h2.4v-12h3.7v12h2.4v-12h3.7v12h2.4v-12h3.3V604z M301.4,604h-27.6V260h3.3v12h2.4v-12h3.7v12h2.4v-12
	h3.7v12h2.4v-12h3.7v12h2.4v-12h3.3V604z M332.7,604h-27.6V260h3.3v12h2.4v-12h3.7v12h2.4v-12h3.7v12h2.4v-12h3.7v12h2.4v-12h3.3
	V604z M363.9,604h-27.6V260h3.3v12h2.4v-12h3.7v12h2.4v-12h3.7v12h2.4v-12h3.7v12h2.4v-12h3.3V604z M395.2,604h-27.6V260h3.3v12h2.4
	v-12h3.7v12h2.4v-12h3.7v12h2.4v-12h3.7v12h2.4v-12h3.3V604z M426.4,604h-27.6V260h3.3v12h2.4v-12h3.7v12h2.4v-12h3.7v12h2.4v-12
	h3.7v12h2.4v-12h3.3V604z M457.6,604h-27.6V260h3.3v12h2.4v-12h3.7v12h2.4v-12h3.7v12h2.4v-12h3.7v12h2.4v-12h3.3V604z M488.9,604
	h-27.6V260h3.3v12h2.4v-12h3.7v12h2.4v-12h3.7v12h2.4v-12h3.7v12h2.4v-12h3.3V604z M520.1,604h-27.6V260h3.3v12h2.4v-12h3.7v12h2.4
	v-12h3.7v12h2.4v-12h3.7v12h2.4v-12h3.3V604z M551.4,604h-27.6V260h3.3v12h2.4v-12h3.7v12h2.4v-12h3.7v12h2.4v-12h3.7v12h2.4v-12
	h3.3V604z M582.6,604H555V260h3.3v12h2.4v-12h3.7v12h2.4v-12h3.7v12h2.4v-12h3.7v12h2.4v-12h3.3V604z M613.9,604h-27.6V260h3.3v12
	h2.4v-12h3.7v12h2.4v-12h3.7v12h2.4v-12h3.7v12h2.4v-12h3.3V604z M645.1,604h-27.6V260h3.3v12h2.4v-12h3.7v12h2.4v-12h3.7v12h2.4
	v-12h3.7v12h2.4v-12h3.3V604z M676.4,604h-27.6V260h3.3v12h2.4v-12h3.7v12h2.4v-12h3.7v12h2.4v-12h3.7v12h2.4v-12h3.3V604z
	 M707.6,604H680V260h3.3v12h2.4v-12h3.7v12h2.4v-12h3.7v12h2.4v-12h3.7v12h2.4v-12h3.3V604z M738.9,604h-27.6V260h3.3v12h2.4v-12
	h3.7v12h2.4v-12h3.7v12h2.4v-12h3.7v12h2.4v-12h3.3V604z M813.3,604h-70.8V260h70.8V604z"/>
<g>
</g>
<g>
</g>
<g>
</g>
<g>
</g>
<g>
</g>
<g>
</g>
</svg>
